<svg width="156" height="208" viewBox="0 0 156 208" fill="none" xmlns="http://www.w3.org/2000/svg">
<g id="Group 4">
<path id="Subtract" fill-rule="evenodd" clip-rule="evenodd" d="M0 13C0 5.8203 5.8203 0 13 0H142.133C149.313 0 155.133 5.8203 155.133 13V129.133C145.56 129.133 137.8 136.894 137.8 146.467C137.8 156.04 145.56 163.8 155.133 163.8V195C155.133 202.18 149.313 208 142.133 208H13C5.8203 208 0 202.18 0 195V163.8C9.57294 163.8 17.3333 156.04 17.3333 146.467C17.3333 136.894 9.57294 129.133 0 129.133V13Z" fill="#6D0B0C"/>
<path id="Line 3" d="M18.2 146.833C17.9238 146.833 17.7 147.057 17.7 147.333C17.7 147.609 17.9238 147.833 18.2 147.833V146.833ZM18.2 147.833H19.073V146.833H18.2V147.833ZM20.8191 147.833H22.5651V146.833H20.8191V147.833ZM24.3112 147.833H26.0573V146.833H24.3112V147.833ZM27.8034 147.833H29.5495V146.833H27.8034V147.833ZM31.2955 147.833H33.0416V146.833H31.2955V147.833ZM34.7877 147.833H36.5338V146.833H34.7877V147.833ZM38.2799 147.833H40.0259V146.833H38.2799V147.833ZM41.772 147.833H43.5181V146.833H41.772V147.833ZM45.2642 147.833H47.0102V146.833H45.2642V147.833ZM48.7563 147.833H50.5024V146.833H48.7563V147.833ZM52.2485 147.833H53.9946V146.833H52.2485V147.833ZM55.7406 147.833H57.4867V146.833H55.7406V147.833ZM59.2328 147.833H60.9789V146.833H59.2328V147.833ZM62.7249 147.833H64.471V146.833H62.7249V147.833ZM66.2171 147.833H67.9632V146.833H66.2171V147.833ZM69.7093 147.833H71.4553V146.833H69.7093V147.833ZM73.2014 147.833H74.9475V146.833H73.2014V147.833ZM76.6936 147.833H78.4397V146.833H76.6936V147.833ZM80.1857 147.833H81.9318V146.833H80.1857V147.833ZM83.6779 147.833H85.424V146.833H83.6779V147.833ZM87.17 147.833H88.9161V146.833H87.17V147.833ZM90.6622 147.833H92.4083V146.833H90.6622V147.833ZM94.1544 147.833H95.9004V146.833H94.1544V147.833ZM97.6465 147.833H99.3926V146.833H97.6465V147.833ZM101.139 147.833H102.885V146.833H101.139V147.833ZM104.631 147.833H106.377V146.833H104.631V147.833ZM108.123 147.833H109.869V146.833H108.123V147.833ZM111.615 147.833H113.361V146.833H111.615V147.833ZM115.107 147.833H116.853V146.833H115.107V147.833ZM118.599 147.833H120.346V146.833H118.599V147.833ZM122.092 147.833H123.838V146.833H122.092V147.833ZM125.584 147.833H127.33V146.833H125.584V147.833ZM129.076 147.833H130.822V146.833H129.076V147.833ZM132.568 147.833H134.314V146.833H132.568V147.833ZM136.06 147.833H136.933V146.833H136.06V147.833Z" fill="#FFBDAE"/>
</g>
</svg>
